<?xml version="1.0" encoding="utf-8" standalone="no"?>
<!DOCTYPE svg PUBLIC "-//W3C//DTD SVG 1.1//EN"
  "http://www.w3.org/Graphics/SVG/1.1/DTD/svg11.dtd">
<svg xmlns:xlink="http://www.w3.org/1999/xlink" width="360pt" height="432pt" viewBox="0 0 360 432" xmlns="http://www.w3.org/2000/svg" version="1.1">
 <metadata>
  <rdf:RDF xmlns:dc="http://purl.org/dc/elements/1.1/" xmlns:cc="http://creativecommons.org/ns#" xmlns:rdf="http://www.w3.org/1999/02/22-rdf-syntax-ns#">
   <cc:Work>
    <dc:type rdf:resource="http://purl.org/dc/dcmitype/StillImage"/>
    <dc:date>2026-01-16T15:11:36.600123</dc:date>
    <dc:format>image/svg+xml</dc:format>
    <dc:creator>
     <cc:Agent>
      <dc:title>Matplotlib v3.7.2, https://matplotlib.org/</dc:title>
     </cc:Agent>
    </dc:creator>
   </cc:Work>
  </rdf:RDF>
 </metadata>
 <defs>
  <style type="text/css">*{stroke-linejoin: round; stroke-linecap: butt}</style>
 </defs>
 <g id="figure_1">
  <g id="patch_1">
   <path d="M 0 432 
L 360 432 
L 360 0 
L 0 0 
z
" style="fill: #ffffff"/>
  </g>
  <g id="axes_1">
   <g id="patch_2">
    <path d="M 54.2 109.24 
L 338.04 109.24 
L 338.04 25.44 
L 54.2 25.44 
z
" style="fill: #ffffff"/>
   </g>
   <g id="matplotlib.axis_1">
    <g id="xtick_1">
     <g id="line2d_1">
      <defs>
       <path id="mdd577e7ecc" d="M 0 0 
L 0 3.5 
" style="stroke: #000000; stroke-width: 0.8"/>
      </defs>
      <g>
       <use xlink:href="#mdd577e7ecc" x="63.07" y="109.24" style="stroke: #000000; stroke-width: 0.8"/>
      </g>
     </g>
     <g id="text_1">
      <!-- −15 -->
      <g transform="translate(52.517656 123.838437) scale(0.1 -0.1)">
       <defs>
        <path id="DejaVuSans-2212" d="M 678 2272 
L 4684 2272 
L 4684 1741 
L 678 1741 
L 678 2272 
z
" transform="scale(0.015625)"/>
        <path id="DejaVuSans-31" d="M 794 531 
L 1825 531 
L 1825 4091 
L 703 3866 
L 703 4441 
L 1819 4666 
L 2450 4666 
L 2450 531 
L 3481 531 
L 3481 0 
L 794 0 
L 794 531 
z
" transform="scale(0.015625)"/>
        <path id="DejaVuSans-35" d="M 691 4666 
L 3169 4666 
L 3169 4134 
L 1269 4134 
L 1269 2991 
Q 1406 3038 1543 3061 
Q 1681 3084 1819 3084 
Q 2600 3084 3056 2656 
Q 3513 2228 3513 1497 
Q 3513 744 3044 326 
Q 2575 -91 1722 -91 
Q 1428 -91 1123 -41 
Q 819 9 494 109 
L 494 744 
Q 775 591 1075 516 
Q 1375 441 1709 441 
Q 2250 441 2565 725 
Q 2881 1009 2881 1497 
Q 2881 1984 2565 2268 
Q 2250 2553 1709 2553 
Q 1456 2553 1204 2497 
Q 953 2441 691 2322 
L 691 4666 
z
" transform="scale(0.015625)"/>
       </defs>
       <use xlink:href="#DejaVuSans-2212"/>
       <use xlink:href="#DejaVuSans-31" x="83.789062"/>
       <use xlink:href="#DejaVuSans-35" x="147.412109"/>
      </g>
     </g>
    </g>
    <g id="xtick_2">
     <g id="line2d_2">
      <g>
       <use xlink:href="#mdd577e7ecc" x="107.42" y="109.24" style="stroke: #000000; stroke-width: 0.8"/>
      </g>
     </g>
     <g id="text_2">
      <!-- −10 -->
      <g transform="translate(96.867656 123.838437) scale(0.1 -0.1)">
       <defs>
        <path id="DejaVuSans-30" d="M 2034 4250 
Q 1547 4250 1301 3770 
Q 1056 3291 1056 2328 
Q 1056 1369 1301 889 
Q 1547 409 2034 409 
Q 2525 409 2770 889 
Q 3016 1369 3016 2328 
Q 3016 3291 2770 3770 
Q 2525 4250 2034 4250 
z
M 2034 4750 
Q 2819 4750 3233 4129 
Q 3647 3509 3647 2328 
Q 3647 1150 3233 529 
Q 2819 -91 2034 -91 
Q 1250 -91 836 529 
Q 422 1150 422 2328 
Q 422 3509 836 4129 
Q 1250 4750 2034 4750 
z
" transform="scale(0.015625)"/>
       </defs>
       <use xlink:href="#DejaVuSans-2212"/>
       <use xlink:href="#DejaVuSans-31" x="83.789062"/>
       <use xlink:href="#DejaVuSans-30" x="147.412109"/>
      </g>
     </g>
    </g>
    <g id="xtick_3">
     <g id="line2d_3">
      <g>
       <use xlink:href="#mdd577e7ecc" x="151.77" y="109.24" style="stroke: #000000; stroke-width: 0.8"/>
      </g>
     </g>
     <g id="text_3">
      <!-- −5 -->
      <g transform="translate(144.398906 123.838437) scale(0.1 -0.1)">
       <use xlink:href="#DejaVuSans-2212"/>
       <use xlink:href="#DejaVuSans-35" x="83.789062"/>
      </g>
     </g>
    </g>
    <g id="xtick_4">
     <g id="line2d_4">
      <g>
       <use xlink:href="#mdd577e7ecc" x="196.12" y="109.24" style="stroke: #000000; stroke-width: 0.8"/>
      </g>
     </g>
     <g id="text_4">
      <!-- 0 -->
      <g transform="translate(192.93875 123.838437) scale(0.1 -0.1)">
       <use xlink:href="#DejaVuSans-30"/>
      </g>
     </g>
    </g>
    <g id="xtick_5">
     <g id="line2d_5">
      <g>
       <use xlink:href="#mdd577e7ecc" x="240.47" y="109.24" style="stroke: #000000; stroke-width: 0.8"/>
      </g>
     </g>
     <g id="text_5">
      <!-- 5 -->
      <g transform="translate(237.28875 123.838437) scale(0.1 -0.1)">
       <use xlink:href="#DejaVuSans-35"/>
      </g>
     </g>
    </g>
    <g id="xtick_6">
     <g id="line2d_6">
      <g>
       <use xlink:href="#mdd577e7ecc" x="284.82" y="109.24" style="stroke: #000000; stroke-width: 0.8"/>
      </g>
     </g>
     <g id="text_6">
      <!-- 10 -->
      <g transform="translate(278.4575 123.838437) scale(0.1 -0.1)">
       <use xlink:href="#DejaVuSans-31"/>
       <use xlink:href="#DejaVuSans-30" x="63.623047"/>
      </g>
     </g>
    </g>
    <g id="xtick_7">
     <g id="line2d_7">
      <g>
       <use xlink:href="#mdd577e7ecc" x="329.17" y="109.24" style="stroke: #000000; stroke-width: 0.8"/>
      </g>
     </g>
     <g id="text_7">
      <!-- 15 -->
      <g transform="translate(322.8075 123.838437) scale(0.1 -0.1)">
       <use xlink:href="#DejaVuSans-31"/>
       <use xlink:href="#DejaVuSans-35" x="63.623047"/>
      </g>
     </g>
    </g>
    <g id="text_8">
     <!-- Space -->
     <g transform="translate(180.881719 137.516562) scale(0.1 -0.1)">
      <defs>
       <path id="DejaVuSans-53" d="M 3425 4513 
L 3425 3897 
Q 3066 4069 2747 4153 
Q 2428 4238 2131 4238 
Q 1616 4238 1336 4038 
Q 1056 3838 1056 3469 
Q 1056 3159 1242 3001 
Q 1428 2844 1947 2747 
L 2328 2669 
Q 3034 2534 3370 2195 
Q 3706 1856 3706 1288 
Q 3706 609 3251 259 
Q 2797 -91 1919 -91 
Q 1588 -91 1214 -16 
Q 841 59 441 206 
L 441 856 
Q 825 641 1194 531 
Q 1563 422 1919 422 
Q 2459 422 2753 634 
Q 3047 847 3047 1241 
Q 3047 1584 2836 1778 
Q 2625 1972 2144 2069 
L 1759 2144 
Q 1053 2284 737 2584 
Q 422 2884 422 3419 
Q 422 4038 858 4394 
Q 1294 4750 2059 4750 
Q 2388 4750 2728 4690 
Q 3069 4631 3425 4513 
z
" transform="scale(0.015625)"/>
       <path id="DejaVuSans-70" d="M 1159 525 
L 1159 -1331 
L 581 -1331 
L 581 3500 
L 1159 3500 
L 1159 2969 
Q 1341 3281 1617 3432 
Q 1894 3584 2278 3584 
Q 2916 3584 3314 3078 
Q 3713 2572 3713 1747 
Q 3713 922 3314 415 
Q 2916 -91 2278 -91 
Q 1894 -91 1617 61 
Q 1341 213 1159 525 
z
M 3116 1747 
Q 3116 2381 2855 2742 
Q 2594 3103 2138 3103 
Q 1681 3103 1420 2742 
Q 1159 2381 1159 1747 
Q 1159 1113 1420 752 
Q 1681 391 2138 391 
Q 2594 391 2855 752 
Q 3116 1113 3116 1747 
z
" transform="scale(0.015625)"/>
       <path id="DejaVuSans-61" d="M 2194 1759 
Q 1497 1759 1228 1600 
Q 959 1441 959 1056 
Q 959 750 1161 570 
Q 1363 391 1709 391 
Q 2188 391 2477 730 
Q 2766 1069 2766 1631 
L 2766 1759 
L 2194 1759 
z
M 3341 1997 
L 3341 0 
L 2766 0 
L 2766 531 
Q 2569 213 2275 61 
Q 1981 -91 1556 -91 
Q 1019 -91 701 211 
Q 384 513 384 1019 
Q 384 1609 779 1909 
Q 1175 2209 1959 2209 
L 2766 2209 
L 2766 2266 
Q 2766 2663 2505 2880 
Q 2244 3097 1772 3097 
Q 1472 3097 1187 3025 
Q 903 2953 641 2809 
L 641 3341 
Q 956 3463 1253 3523 
Q 1550 3584 1831 3584 
Q 2591 3584 2966 3190 
Q 3341 2797 3341 1997 
z
" transform="scale(0.015625)"/>
       <path id="DejaVuSans-63" d="M 3122 3366 
L 3122 2828 
Q 2878 2963 2633 3030 
Q 2388 3097 2138 3097 
Q 1578 3097 1268 2742 
Q 959 2388 959 1747 
Q 959 1106 1268 751 
Q 1578 397 2138 397 
Q 2388 397 2633 464 
Q 2878 531 3122 666 
L 3122 134 
Q 2881 22 2623 -34 
Q 2366 -91 2075 -91 
Q 1284 -91 818 406 
Q 353 903 353 1747 
Q 353 2603 823 3093 
Q 1294 3584 2113 3584 
Q 2378 3584 2631 3529 
Q 2884 3475 3122 3366 
z
" transform="scale(0.015625)"/>
       <path id="DejaVuSans-65" d="M 3597 1894 
L 3597 1613 
L 953 1613 
Q 991 1019 1311 708 
Q 1631 397 2203 397 
Q 2534 397 2845 478 
Q 3156 559 3463 722 
L 3463 178 
Q 3153 47 2828 -22 
Q 2503 -91 2169 -91 
Q 1331 -91 842 396 
Q 353 884 353 1716 
Q 353 2575 817 3079 
Q 1281 3584 2069 3584 
Q 2775 3584 3186 3129 
Q 3597 2675 3597 1894 
z
M 3022 2063 
Q 3016 2534 2758 2815 
Q 2500 3097 2075 3097 
Q 1594 3097 1305 2825 
Q 1016 2553 972 2059 
L 3022 2063 
z
" transform="scale(0.015625)"/>
      </defs>
      <use xlink:href="#DejaVuSans-53"/>
      <use xlink:href="#DejaVuSans-70" x="63.476562"/>
      <use xlink:href="#DejaVuSans-61" x="126.953125"/>
      <use xlink:href="#DejaVuSans-63" x="188.232422"/>
      <use xlink:href="#DejaVuSans-65" x="243.212891"/>
     </g>
    </g>
   </g>
   <g id="matplotlib.axis_2">
    <g id="ytick_1">
     <g id="line2d_8">
      <defs>
       <path id="ma342428813" d="M 0 0 
L -3.5 0 
" style="stroke: #000000; stroke-width: 0.8"/>
      </defs>
      <g>
       <use xlink:href="#ma342428813" x="54.2" y="105.456474" style="stroke: #000000; stroke-width: 0.8"/>
      </g>
     </g>
     <g id="text_9">
      <!-- 0.0 -->
      <g transform="translate(31.296875 109.255693) scale(0.1 -0.1)">
       <defs>
        <path id="DejaVuSans-2e" d="M 684 794 
L 1344 794 
L 1344 0 
L 684 0 
L 684 794 
z
" transform="scale(0.015625)"/>
       </defs>
       <use xlink:href="#DejaVuSans-30"/>
       <use xlink:href="#DejaVuSans-2e" x="63.623047"/>
       <use xlink:href="#DejaVuSans-30" x="95.410156"/>
      </g>
     </g>
    </g>
    <g id="ytick_2">
     <g id="line2d_9">
      <g>
       <use xlink:href="#ma342428813" x="54.2" y="67.352782" style="stroke: #000000; stroke-width: 0.8"/>
      </g>
     </g>
     <g id="text_10">
      <!-- 0.5 -->
      <g transform="translate(31.296875 71.152001) scale(0.1 -0.1)">
       <use xlink:href="#DejaVuSans-30"/>
       <use xlink:href="#DejaVuSans-2e" x="63.623047"/>
       <use xlink:href="#DejaVuSans-35" x="95.410156"/>
      </g>
     </g>
    </g>
    <g id="ytick_3">
     <g id="line2d_10">
      <g>
       <use xlink:href="#ma342428813" x="54.2" y="29.249091" style="stroke: #000000; stroke-width: 0.8"/>
      </g>
     </g>
     <g id="text_11">
      <!-- 1.0 -->
      <g transform="translate(31.296875 33.04831) scale(0.1 -0.1)">
       <use xlink:href="#DejaVuSans-31"/>
       <use xlink:href="#DejaVuSans-2e" x="63.623047"/>
       <use xlink:href="#DejaVuSans-30" x="95.410156"/>
      </g>
     </g>
    </g>
    <g id="text_12">
     <!-- Prob. of Connection -->
     <g transform="translate(25.217188 116.322031) rotate(-90) scale(0.1 -0.1)">
      <defs>
       <path id="DejaVuSans-50" d="M 1259 4147 
L 1259 2394 
L 2053 2394 
Q 2494 2394 2734 2622 
Q 2975 2850 2975 3272 
Q 2975 3691 2734 3919 
Q 2494 4147 2053 4147 
L 1259 4147 
z
M 628 4666 
L 2053 4666 
Q 2838 4666 3239 4311 
Q 3641 3956 3641 3272 
Q 3641 2581 3239 2228 
Q 2838 1875 2053 1875 
L 1259 1875 
L 1259 0 
L 628 0 
L 628 4666 
z
" transform="scale(0.015625)"/>
       <path id="DejaVuSans-72" d="M 2631 2963 
Q 2534 3019 2420 3045 
Q 2306 3072 2169 3072 
Q 1681 3072 1420 2755 
Q 1159 2438 1159 1844 
L 1159 0 
L 581 0 
L 581 3500 
L 1159 3500 
L 1159 2956 
Q 1341 3275 1631 3429 
Q 1922 3584 2338 3584 
Q 2397 3584 2469 3576 
Q 2541 3569 2628 3553 
L 2631 2963 
z
" transform="scale(0.015625)"/>
       <path id="DejaVuSans-6f" d="M 1959 3097 
Q 1497 3097 1228 2736 
Q 959 2375 959 1747 
Q 959 1119 1226 758 
Q 1494 397 1959 397 
Q 2419 397 2687 759 
Q 2956 1122 2956 1747 
Q 2956 2369 2687 2733 
Q 2419 3097 1959 3097 
z
M 1959 3584 
Q 2709 3584 3137 3096 
Q 3566 2609 3566 1747 
Q 3566 888 3137 398 
Q 2709 -91 1959 -91 
Q 1206 -91 779 398 
Q 353 888 353 1747 
Q 353 2609 779 3096 
Q 1206 3584 1959 3584 
z
" transform="scale(0.015625)"/>
       <path id="DejaVuSans-62" d="M 3116 1747 
Q 3116 2381 2855 2742 
Q 2594 3103 2138 3103 
Q 1681 3103 1420 2742 
Q 1159 2381 1159 1747 
Q 1159 1113 1420 752 
Q 1681 391 2138 391 
Q 2594 391 2855 752 
Q 3116 1113 3116 1747 
z
M 1159 2969 
Q 1341 3281 1617 3432 
Q 1894 3584 2278 3584 
Q 2916 3584 3314 3078 
Q 3713 2572 3713 1747 
Q 3713 922 3314 415 
Q 2916 -91 2278 -91 
Q 1894 -91 1617 61 
Q 1341 213 1159 525 
L 1159 0 
L 581 0 
L 581 4863 
L 1159 4863 
L 1159 2969 
z
" transform="scale(0.015625)"/>
       <path id="DejaVuSans-20" transform="scale(0.015625)"/>
       <path id="DejaVuSans-66" d="M 2375 4863 
L 2375 4384 
L 1825 4384 
Q 1516 4384 1395 4259 
Q 1275 4134 1275 3809 
L 1275 3500 
L 2222 3500 
L 2222 3053 
L 1275 3053 
L 1275 0 
L 697 0 
L 697 3053 
L 147 3053 
L 147 3500 
L 697 3500 
L 697 3744 
Q 697 4328 969 4595 
Q 1241 4863 1831 4863 
L 2375 4863 
z
" transform="scale(0.015625)"/>
       <path id="DejaVuSans-43" d="M 4122 4306 
L 4122 3641 
Q 3803 3938 3442 4084 
Q 3081 4231 2675 4231 
Q 1875 4231 1450 3742 
Q 1025 3253 1025 2328 
Q 1025 1406 1450 917 
Q 1875 428 2675 428 
Q 3081 428 3442 575 
Q 3803 722 4122 1019 
L 4122 359 
Q 3791 134 3420 21 
Q 3050 -91 2638 -91 
Q 1578 -91 968 557 
Q 359 1206 359 2328 
Q 359 3453 968 4101 
Q 1578 4750 2638 4750 
Q 3056 4750 3426 4639 
Q 3797 4528 4122 4306 
z
" transform="scale(0.015625)"/>
       <path id="DejaVuSans-6e" d="M 3513 2113 
L 3513 0 
L 2938 0 
L 2938 2094 
Q 2938 2591 2744 2837 
Q 2550 3084 2163 3084 
Q 1697 3084 1428 2787 
Q 1159 2491 1159 1978 
L 1159 0 
L 581 0 
L 581 3500 
L 1159 3500 
L 1159 2956 
Q 1366 3272 1645 3428 
Q 1925 3584 2291 3584 
Q 2894 3584 3203 3211 
Q 3513 2838 3513 2113 
z
" transform="scale(0.015625)"/>
       <path id="DejaVuSans-74" d="M 1172 4494 
L 1172 3500 
L 2356 3500 
L 2356 3053 
L 1172 3053 
L 1172 1153 
Q 1172 725 1289 603 
Q 1406 481 1766 481 
L 2356 481 
L 2356 0 
L 1766 0 
Q 1100 0 847 248 
Q 594 497 594 1153 
L 594 3053 
L 172 3053 
L 172 3500 
L 594 3500 
L 594 4494 
L 1172 4494 
z
" transform="scale(0.015625)"/>
       <path id="DejaVuSans-69" d="M 603 3500 
L 1178 3500 
L 1178 0 
L 603 0 
L 603 3500 
z
M 603 4863 
L 1178 4863 
L 1178 4134 
L 603 4134 
L 603 4863 
z
" transform="scale(0.015625)"/>
      </defs>
      <use xlink:href="#DejaVuSans-50"/>
      <use xlink:href="#DejaVuSans-72" x="58.552734"/>
      <use xlink:href="#DejaVuSans-6f" x="97.416016"/>
      <use xlink:href="#DejaVuSans-62" x="158.597656"/>
      <use xlink:href="#DejaVuSans-2e" x="222.074219"/>
      <use xlink:href="#DejaVuSans-20" x="253.861328"/>
      <use xlink:href="#DejaVuSans-6f" x="285.648438"/>
      <use xlink:href="#DejaVuSans-66" x="346.830078"/>
      <use xlink:href="#DejaVuSans-20" x="382.035156"/>
      <use xlink:href="#DejaVuSans-43" x="413.822266"/>
      <use xlink:href="#DejaVuSans-6f" x="483.646484"/>
      <use xlink:href="#DejaVuSans-6e" x="544.828125"/>
      <use xlink:href="#DejaVuSans-6e" x="608.207031"/>
      <use xlink:href="#DejaVuSans-65" x="671.585938"/>
      <use xlink:href="#DejaVuSans-63" x="733.109375"/>
      <use xlink:href="#DejaVuSans-74" x="788.089844"/>
      <use xlink:href="#DejaVuSans-69" x="827.298828"/>
      <use xlink:href="#DejaVuSans-6f" x="855.082031"/>
      <use xlink:href="#DejaVuSans-6e" x="916.263672"/>
     </g>
    </g>
   </g>
   <g id="line2d_11">
    <path d="M 54.2 101.331055 
L 63.07 100.200554 
L 71.94 98.864073 
L 80.81 97.315945 
L 89.68 95.560108 
L 99.65875 93.356329 
L 110.74625 90.674437 
L 128.48625 86.101605 
L 144.00875 82.178344 
L 153.9875 79.89981 
L 161.74875 78.347683 
L 168.40125 77.212682 
L 175.05375 76.287657 
L 181.70625 75.595938 
L 188.35875 75.155309 
L 195.01125 74.977241 
L 200.555 75.033 
L 207.2075 75.343365 
L 213.86 75.911383 
L 220.5125 76.722345 
L 227.165 77.755585 
L 234.92625 79.20738 
L 243.79625 81.132569 
L 253.775 83.543267 
L 271.515 88.121701 
L 287.0375 92.041563 
L 298.125 94.60865 
L 308.10375 96.681284 
L 316.97375 98.308348 
L 325.84375 99.724 
L 334.71375 100.930562 
L 336.93125 101.200619 
L 336.93125 101.200619 
" clip-path="url(#p19355d9445)" style="fill: none; stroke-dasharray: 1.5,2.475; stroke-dashoffset: 0; stroke: #ff0000; stroke-opacity: 0.5; stroke-width: 1.5"/>
   </g>
   <g id="line2d_12">
    <path d="M 54.2 105.430909 
L 73.04875 105.270594 
L 83.0275 104.982508 
L 90.78875 104.527133 
L 96.3325 103.996556 
L 101.87625 103.218376 
L 106.31125 102.361297 
L 110.74625 101.242362 
L 114.0725 100.199107 
L 117.39875 98.954976 
L 120.725 97.486782 
L 124.05125 95.772522 
L 127.3775 93.792497 
L 130.70375 91.530561 
L 134.03 88.975471 
L 137.35625 86.122259 
L 140.6825 82.973569 
L 144.00875 79.540875 
L 147.335 75.845476 
L 151.77 70.566192 
L 157.31375 63.555301 
L 169.51 47.932123 
L 172.83625 44.012466 
L 176.1625 40.400032 
L 179.48875 37.177965 
L 181.70625 35.285215 
L 183.92375 33.621151 
L 186.14125 32.204326 
L 188.35875 31.050773 
L 190.57625 30.173702 
L 192.79375 29.583252 
L 195.01125 29.286292 
L 197.22875 29.286292 
L 199.44625 29.583252 
L 201.66375 30.173702 
L 203.88125 31.050773 
L 206.09875 32.204326 
L 208.31625 33.621151 
L 210.53375 35.285215 
L 212.75125 37.177965 
L 216.0775 40.400032 
L 219.40375 44.012466 
L 222.73 47.932123 
L 227.165 53.487554 
L 241.57875 71.919197 
L 246.01375 77.104722 
L 249.34 80.715559 
L 252.66625 84.055449 
L 255.9925 87.106462 
L 259.31875 89.860192 
L 262.645 92.316673 
L 265.97125 94.483119 
L 269.2975 96.372559 
L 272.62375 98.00247 
L 275.95 99.393452 
L 279.27625 100.568019 
L 282.6025 101.549531 
L 287.0375 102.598093 
L 291.4725 103.39766 
L 297.01625 104.120045 
L 302.56 104.609886 
L 309.2125 104.982508 
L 318.0825 105.249413 
L 331.3875 105.403296 
L 336.93125 105.427519 
L 336.93125 105.427519 
" clip-path="url(#p19355d9445)" style="fill: none; stroke-dasharray: 5.55,2.4; stroke-dashoffset: 0; stroke: #0000ff; stroke-opacity: 0.5; stroke-width: 1.5"/>
   </g>
   <g id="line2d_13">
    <path d="M 54.2 92.924557 
L 71.94 90.021869 
L 128.48625 80.545948 
L 140.6825 78.839904 
L 151.77 77.508015 
L 161.74875 76.522108 
L 171.7275 75.763545 
L 180.5975 75.295949 
L 189.4675 75.033 
L 198.3375 74.980135 
L 207.2075 75.138453 
L 216.0775 75.504672 
L 226.05625 76.155615 
L 236.035 77.043237 
L 246.01375 78.14507 
L 257.10125 79.587331 
L 270.40625 81.56256 
L 285.92875 84.103082 
L 336.93125 92.749978 
L 336.93125 92.749978 
" clip-path="url(#p19355d9445)" style="fill: none; stroke-dasharray: 5.55,2.4; stroke-dashoffset: 0; stroke: #ff0000; stroke-opacity: 0.5; stroke-width: 1.5"/>
   </g>
   <g id="line2d_14">
    <path d="M 54.2 105.430909 
L 73.04875 105.270594 
L 83.0275 104.982508 
L 90.78875 104.527133 
L 96.3325 103.996556 
L 101.87625 103.218376 
L 106.31125 102.361297 
L 110.74625 101.242362 
L 114.0725 100.199107 
L 117.39875 98.954976 
L 120.725 97.486782 
L 124.05125 95.772522 
L 127.3775 93.792497 
L 130.70375 91.530561 
L 134.03 88.975471 
L 137.35625 86.122259 
L 140.6825 82.973569 
L 144.00875 79.540875 
L 147.335 75.845476 
L 151.77 70.566192 
L 157.31375 63.555301 
L 169.51 47.932123 
L 172.83625 44.012466 
L 176.1625 40.400032 
L 179.48875 37.177965 
L 181.70625 35.285215 
L 183.92375 33.621151 
L 186.14125 32.204326 
L 188.35875 31.050773 
L 190.57625 30.173702 
L 192.79375 29.583252 
L 195.01125 29.286292 
L 197.22875 29.286292 
L 199.44625 29.583252 
L 201.66375 30.173702 
L 203.88125 31.050773 
L 206.09875 32.204326 
L 208.31625 33.621151 
L 210.53375 35.285215 
L 212.75125 37.177965 
L 216.0775 40.400032 
L 219.40375 44.012466 
L 222.73 47.932123 
L 227.165 53.487554 
L 241.57875 71.919197 
L 246.01375 77.104722 
L 249.34 80.715559 
L 252.66625 84.055449 
L 255.9925 87.106462 
L 259.31875 89.860192 
L 262.645 92.316673 
L 265.97125 94.483119 
L 269.2975 96.372559 
L 272.62375 98.00247 
L 275.95 99.393452 
L 279.27625 100.568019 
L 282.6025 101.549531 
L 287.0375 102.598093 
L 291.4725 103.39766 
L 297.01625 104.120045 
L 302.56 104.609886 
L 309.2125 104.982508 
L 318.0825 105.249413 
L 331.3875 105.403296 
L 336.93125 105.427519 
L 336.93125 105.427519 
" clip-path="url(#p19355d9445)" style="fill: none; stroke-dasharray: 1.5,2.475; stroke-dashoffset: 0; stroke: #0000ff; stroke-opacity: 0.5; stroke-width: 1.5"/>
   </g>
   <g id="patch_3">
    <path d="M 54.2 109.24 
L 54.2 25.44 
" style="fill: none; stroke: #000000; stroke-width: 0.8; stroke-linejoin: miter; stroke-linecap: square"/>
   </g>
   <g id="patch_4">
    <path d="M 338.04 109.24 
L 338.04 25.44 
" style="fill: none; stroke: #000000; stroke-width: 0.8; stroke-linejoin: miter; stroke-linecap: square"/>
   </g>
   <g id="patch_5">
    <path d="M 54.2 109.24 
L 338.04 109.24 
" style="fill: none; stroke: #000000; stroke-width: 0.8; stroke-linejoin: miter; stroke-linecap: square"/>
   </g>
   <g id="patch_6">
    <path d="M 54.2 25.44 
L 338.04 25.44 
" style="fill: none; stroke: #000000; stroke-width: 0.8; stroke-linejoin: miter; stroke-linecap: square"/>
   </g>
   <g id="text_13">
    <!-- Spatial Kernels -->
    <g transform="translate(151.580312 19.44) scale(0.12 -0.12)">
     <defs>
      <path id="DejaVuSans-6c" d="M 603 4863 
L 1178 4863 
L 1178 0 
L 603 0 
L 603 4863 
z
" transform="scale(0.015625)"/>
      <path id="DejaVuSans-4b" d="M 628 4666 
L 1259 4666 
L 1259 2694 
L 3353 4666 
L 4166 4666 
L 1850 2491 
L 4331 0 
L 3500 0 
L 1259 2247 
L 1259 0 
L 628 0 
L 628 4666 
z
" transform="scale(0.015625)"/>
      <path id="DejaVuSans-73" d="M 2834 3397 
L 2834 2853 
Q 2591 2978 2328 3040 
Q 2066 3103 1784 3103 
Q 1356 3103 1142 2972 
Q 928 2841 928 2578 
Q 928 2378 1081 2264 
Q 1234 2150 1697 2047 
L 1894 2003 
Q 2506 1872 2764 1633 
Q 3022 1394 3022 966 
Q 3022 478 2636 193 
Q 2250 -91 1575 -91 
Q 1294 -91 989 -36 
Q 684 19 347 128 
L 347 722 
Q 666 556 975 473 
Q 1284 391 1588 391 
Q 1994 391 2212 530 
Q 2431 669 2431 922 
Q 2431 1156 2273 1281 
Q 2116 1406 1581 1522 
L 1381 1569 
Q 847 1681 609 1914 
Q 372 2147 372 2553 
Q 372 3047 722 3315 
Q 1072 3584 1716 3584 
Q 2034 3584 2315 3537 
Q 2597 3491 2834 3397 
z
" transform="scale(0.015625)"/>
     </defs>
     <use xlink:href="#DejaVuSans-53"/>
     <use xlink:href="#DejaVuSans-70" x="63.476562"/>
     <use xlink:href="#DejaVuSans-61" x="126.953125"/>
     <use xlink:href="#DejaVuSans-74" x="188.232422"/>
     <use xlink:href="#DejaVuSans-69" x="227.441406"/>
     <use xlink:href="#DejaVuSans-61" x="255.224609"/>
     <use xlink:href="#DejaVuSans-6c" x="316.503906"/>
     <use xlink:href="#DejaVuSans-20" x="344.287109"/>
     <use xlink:href="#DejaVuSans-4b" x="376.074219"/>
     <use xlink:href="#DejaVuSans-65" x="436.650391"/>
     <use xlink:href="#DejaVuSans-72" x="498.173828"/>
     <use xlink:href="#DejaVuSans-6e" x="537.537109"/>
     <use xlink:href="#DejaVuSans-65" x="600.916016"/>
     <use xlink:href="#DejaVuSans-6c" x="662.439453"/>
     <use xlink:href="#DejaVuSans-73" x="690.222656"/>
    </g>
   </g>
   <g id="legend_1">
    <g id="patch_7">
     <path d="M 274.415 92.1525 
L 331.04 92.1525 
Q 333.04 92.1525 333.04 90.1525 
L 333.04 32.44 
Q 333.04 30.44 331.04 30.44 
L 274.415 30.44 
Q 272.415 30.44 272.415 32.44 
L 272.415 90.1525 
Q 272.415 92.1525 274.415 92.1525 
z
" style="fill: #ffffff; opacity: 0.8; stroke: #cccccc; stroke-linejoin: miter"/>
    </g>
    <g id="line2d_15">
     <path d="M 276.415 38.538438 
L 286.415 38.538438 
L 296.415 38.538438 
" style="fill: none; stroke-dasharray: 1.5,2.475; stroke-dashoffset: 0; stroke: #ff0000; stroke-opacity: 0.5; stroke-width: 1.5"/>
    </g>
    <g id="text_14">
     <!-- E&lt;-E -->
     <g transform="translate(304.415 42.038438) scale(0.1 -0.1)">
      <defs>
       <path id="DejaVuSans-45" d="M 628 4666 
L 3578 4666 
L 3578 4134 
L 1259 4134 
L 1259 2753 
L 3481 2753 
L 3481 2222 
L 1259 2222 
L 1259 531 
L 3634 531 
L 3634 0 
L 628 0 
L 628 4666 
z
" transform="scale(0.015625)"/>
       <path id="DejaVuSans-3c" d="M 4684 3150 
L 1459 2003 
L 4684 863 
L 4684 294 
L 678 1747 
L 678 2266 
L 4684 3719 
L 4684 3150 
z
" transform="scale(0.015625)"/>
       <path id="DejaVuSans-2d" d="M 313 2009 
L 1997 2009 
L 1997 1497 
L 313 1497 
L 313 2009 
z
" transform="scale(0.015625)"/>
      </defs>
      <use xlink:href="#DejaVuSans-45"/>
      <use xlink:href="#DejaVuSans-3c" x="63.183594"/>
      <use xlink:href="#DejaVuSans-2d" x="146.972656"/>
      <use xlink:href="#DejaVuSans-45" x="183.056641"/>
     </g>
    </g>
    <g id="line2d_16">
     <path d="M 276.415 53.216563 
L 286.415 53.216563 
L 296.415 53.216563 
" style="fill: none; stroke-dasharray: 5.55,2.4; stroke-dashoffset: 0; stroke: #0000ff; stroke-opacity: 0.5; stroke-width: 1.5"/>
    </g>
    <g id="text_15">
     <!-- E&lt;-I -->
     <g transform="translate(304.415 56.716563) scale(0.1 -0.1)">
      <defs>
       <path id="DejaVuSans-49" d="M 628 4666 
L 1259 4666 
L 1259 0 
L 628 0 
L 628 4666 
z
" transform="scale(0.015625)"/>
      </defs>
      <use xlink:href="#DejaVuSans-45"/>
      <use xlink:href="#DejaVuSans-3c" x="63.183594"/>
      <use xlink:href="#DejaVuSans-2d" x="146.972656"/>
      <use xlink:href="#DejaVuSans-49" x="183.056641"/>
     </g>
    </g>
    <g id="line2d_17">
     <path d="M 276.415 67.894688 
L 286.415 67.894688 
L 296.415 67.894688 
" style="fill: none; stroke-dasharray: 5.55,2.4; stroke-dashoffset: 0; stroke: #ff0000; stroke-opacity: 0.5; stroke-width: 1.5"/>
    </g>
    <g id="text_16">
     <!-- I&lt;-E -->
     <g transform="translate(304.415 71.394688) scale(0.1 -0.1)">
      <use xlink:href="#DejaVuSans-49"/>
      <use xlink:href="#DejaVuSans-3c" x="29.492188"/>
      <use xlink:href="#DejaVuSans-2d" x="113.28125"/>
      <use xlink:href="#DejaVuSans-45" x="149.365234"/>
     </g>
    </g>
    <g id="line2d_18">
     <path d="M 276.415 82.572813 
L 286.415 82.572813 
L 296.415 82.572813 
" style="fill: none; stroke-dasharray: 1.5,2.475; stroke-dashoffset: 0; stroke: #0000ff; stroke-opacity: 0.5; stroke-width: 1.5"/>
    </g>
    <g id="text_17">
     <!-- I&lt;-I -->
     <g transform="translate(304.415 86.072813) scale(0.1 -0.1)">
      <use xlink:href="#DejaVuSans-49"/>
      <use xlink:href="#DejaVuSans-3c" x="29.492188"/>
      <use xlink:href="#DejaVuSans-2d" x="113.28125"/>
      <use xlink:href="#DejaVuSans-49" x="149.365234"/>
     </g>
    </g>
   </g>
  </g>
  <g id="axes_2">
   <g id="patch_8">
    <path d="M 54.2 249.64 
L 338.04 249.64 
L 338.04 165.84 
L 54.2 165.84 
z
" style="fill: #ffffff"/>
   </g>
   <g id="matplotlib.axis_3">
    <g id="xtick_8">
     <g id="line2d_19">
      <g>
       <use xlink:href="#mdd577e7ecc" x="54.2" y="249.64" style="stroke: #000000; stroke-width: 0.8"/>
      </g>
     </g>
     <g id="text_18">
      <!-- -90.0 -->
      <g transform="translate(41.263281 264.238437) scale(0.1 -0.1)">
       <defs>
        <path id="DejaVuSans-39" d="M 703 97 
L 703 672 
Q 941 559 1184 500 
Q 1428 441 1663 441 
Q 2288 441 2617 861 
Q 2947 1281 2994 2138 
Q 2813 1869 2534 1725 
Q 2256 1581 1919 1581 
Q 1219 1581 811 2004 
Q 403 2428 403 3163 
Q 403 3881 828 4315 
Q 1253 4750 1959 4750 
Q 2769 4750 3195 4129 
Q 3622 3509 3622 2328 
Q 3622 1225 3098 567 
Q 2575 -91 1691 -91 
Q 1453 -91 1209 -44 
Q 966 3 703 97 
z
M 1959 2075 
Q 2384 2075 2632 2365 
Q 2881 2656 2881 3163 
Q 2881 3666 2632 3958 
Q 2384 4250 1959 4250 
Q 1534 4250 1286 3958 
Q 1038 3666 1038 3163 
Q 1038 2656 1286 2365 
Q 1534 2075 1959 2075 
z
" transform="scale(0.015625)"/>
       </defs>
       <use xlink:href="#DejaVuSans-2d"/>
       <use xlink:href="#DejaVuSans-39" x="36.083984"/>
       <use xlink:href="#DejaVuSans-30" x="99.707031"/>
       <use xlink:href="#DejaVuSans-2e" x="163.330078"/>
       <use xlink:href="#DejaVuSans-30" x="195.117188"/>
      </g>
     </g>
    </g>
    <g id="xtick_9">
     <g id="line2d_20">
      <g>
       <use xlink:href="#mdd577e7ecc" x="125.16" y="249.64" style="stroke: #000000; stroke-width: 0.8"/>
      </g>
     </g>
     <g id="text_19">
      <!-- -45.0 -->
      <g transform="translate(112.223281 264.238437) scale(0.1 -0.1)">
       <defs>
        <path id="DejaVuSans-34" d="M 2419 4116 
L 825 1625 
L 2419 1625 
L 2419 4116 
z
M 2253 4666 
L 3047 4666 
L 3047 1625 
L 3713 1625 
L 3713 1100 
L 3047 1100 
L 3047 0 
L 2419 0 
L 2419 1100 
L 313 1100 
L 313 1709 
L 2253 4666 
z
" transform="scale(0.015625)"/>
       </defs>
       <use xlink:href="#DejaVuSans-2d"/>
       <use xlink:href="#DejaVuSans-34" x="36.083984"/>
       <use xlink:href="#DejaVuSans-35" x="99.707031"/>
       <use xlink:href="#DejaVuSans-2e" x="163.330078"/>
       <use xlink:href="#DejaVuSans-30" x="195.117188"/>
      </g>
     </g>
    </g>
    <g id="xtick_10">
     <g id="line2d_21">
      <g>
       <use xlink:href="#mdd577e7ecc" x="196.12" y="249.64" style="stroke: #000000; stroke-width: 0.8"/>
      </g>
     </g>
     <g id="text_20">
      <!-- 0.0 -->
      <g transform="translate(188.168438 264.238437) scale(0.1 -0.1)">
       <use xlink:href="#DejaVuSans-30"/>
       <use xlink:href="#DejaVuSans-2e" x="63.623047"/>
       <use xlink:href="#DejaVuSans-30" x="95.410156"/>
      </g>
     </g>
    </g>
    <g id="xtick_11">
     <g id="line2d_22">
      <g>
       <use xlink:href="#mdd577e7ecc" x="267.08" y="249.64" style="stroke: #000000; stroke-width: 0.8"/>
      </g>
     </g>
     <g id="text_21">
      <!-- 45.0 -->
      <g transform="translate(255.947187 264.238437) scale(0.1 -0.1)">
       <use xlink:href="#DejaVuSans-34"/>
       <use xlink:href="#DejaVuSans-35" x="63.623047"/>
       <use xlink:href="#DejaVuSans-2e" x="127.246094"/>
       <use xlink:href="#DejaVuSans-30" x="159.033203"/>
      </g>
     </g>
    </g>
    <g id="xtick_12">
     <g id="line2d_23">
      <g>
       <use xlink:href="#mdd577e7ecc" x="338.04" y="249.64" style="stroke: #000000; stroke-width: 0.8"/>
      </g>
     </g>
     <g id="text_22">
      <!-- 90.0 -->
      <g transform="translate(326.907187 264.238437) scale(0.1 -0.1)">
       <use xlink:href="#DejaVuSans-39"/>
       <use xlink:href="#DejaVuSans-30" x="63.623047"/>
       <use xlink:href="#DejaVuSans-2e" x="127.246094"/>
       <use xlink:href="#DejaVuSans-30" x="159.033203"/>
      </g>
     </g>
    </g>
    <g id="text_23">
     <!-- Preferred Orientation Difference (deg) -->
     <g transform="translate(101.003594 277.916562) scale(0.1 -0.1)">
      <defs>
       <path id="DejaVuSans-64" d="M 2906 2969 
L 2906 4863 
L 3481 4863 
L 3481 0 
L 2906 0 
L 2906 525 
Q 2725 213 2448 61 
Q 2172 -91 1784 -91 
Q 1150 -91 751 415 
Q 353 922 353 1747 
Q 353 2572 751 3078 
Q 1150 3584 1784 3584 
Q 2172 3584 2448 3432 
Q 2725 3281 2906 2969 
z
M 947 1747 
Q 947 1113 1208 752 
Q 1469 391 1925 391 
Q 2381 391 2643 752 
Q 2906 1113 2906 1747 
Q 2906 2381 2643 2742 
Q 2381 3103 1925 3103 
Q 1469 3103 1208 2742 
Q 947 2381 947 1747 
z
" transform="scale(0.015625)"/>
       <path id="DejaVuSans-4f" d="M 2522 4238 
Q 1834 4238 1429 3725 
Q 1025 3213 1025 2328 
Q 1025 1447 1429 934 
Q 1834 422 2522 422 
Q 3209 422 3611 934 
Q 4013 1447 4013 2328 
Q 4013 3213 3611 3725 
Q 3209 4238 2522 4238 
z
M 2522 4750 
Q 3503 4750 4090 4092 
Q 4678 3434 4678 2328 
Q 4678 1225 4090 567 
Q 3503 -91 2522 -91 
Q 1538 -91 948 565 
Q 359 1222 359 2328 
Q 359 3434 948 4092 
Q 1538 4750 2522 4750 
z
" transform="scale(0.015625)"/>
       <path id="DejaVuSans-44" d="M 1259 4147 
L 1259 519 
L 2022 519 
Q 2988 519 3436 956 
Q 3884 1394 3884 2338 
Q 3884 3275 3436 3711 
Q 2988 4147 2022 4147 
L 1259 4147 
z
M 628 4666 
L 1925 4666 
Q 3281 4666 3915 4102 
Q 4550 3538 4550 2338 
Q 4550 1131 3912 565 
Q 3275 0 1925 0 
L 628 0 
L 628 4666 
z
" transform="scale(0.015625)"/>
       <path id="DejaVuSans-28" d="M 1984 4856 
Q 1566 4138 1362 3434 
Q 1159 2731 1159 2009 
Q 1159 1288 1364 580 
Q 1569 -128 1984 -844 
L 1484 -844 
Q 1016 -109 783 600 
Q 550 1309 550 2009 
Q 550 2706 781 3412 
Q 1013 4119 1484 4856 
L 1984 4856 
z
" transform="scale(0.015625)"/>
       <path id="DejaVuSans-67" d="M 2906 1791 
Q 2906 2416 2648 2759 
Q 2391 3103 1925 3103 
Q 1463 3103 1205 2759 
Q 947 2416 947 1791 
Q 947 1169 1205 825 
Q 1463 481 1925 481 
Q 2391 481 2648 825 
Q 2906 1169 2906 1791 
z
M 3481 434 
Q 3481 -459 3084 -895 
Q 2688 -1331 1869 -1331 
Q 1566 -1331 1297 -1286 
Q 1028 -1241 775 -1147 
L 775 -588 
Q 1028 -725 1275 -790 
Q 1522 -856 1778 -856 
Q 2344 -856 2625 -561 
Q 2906 -266 2906 331 
L 2906 616 
Q 2728 306 2450 153 
Q 2172 0 1784 0 
Q 1141 0 747 490 
Q 353 981 353 1791 
Q 353 2603 747 3093 
Q 1141 3584 1784 3584 
Q 2172 3584 2450 3431 
Q 2728 3278 2906 2969 
L 2906 3500 
L 3481 3500 
L 3481 434 
z
" transform="scale(0.015625)"/>
       <path id="DejaVuSans-29" d="M 513 4856 
L 1013 4856 
Q 1481 4119 1714 3412 
Q 1947 2706 1947 2009 
Q 1947 1309 1714 600 
Q 1481 -109 1013 -844 
L 513 -844 
Q 928 -128 1133 580 
Q 1338 1288 1338 2009 
Q 1338 2731 1133 3434 
Q 928 4138 513 4856 
z
" transform="scale(0.015625)"/>
      </defs>
      <use xlink:href="#DejaVuSans-50"/>
      <use xlink:href="#DejaVuSans-72" x="58.552734"/>
      <use xlink:href="#DejaVuSans-65" x="97.416016"/>
      <use xlink:href="#DejaVuSans-66" x="158.939453"/>
      <use xlink:href="#DejaVuSans-65" x="194.144531"/>
      <use xlink:href="#DejaVuSans-72" x="255.667969"/>
      <use xlink:href="#DejaVuSans-72" x="295.03125"/>
      <use xlink:href="#DejaVuSans-65" x="333.894531"/>
      <use xlink:href="#DejaVuSans-64" x="395.417969"/>
      <use xlink:href="#DejaVuSans-20" x="458.894531"/>
      <use xlink:href="#DejaVuSans-4f" x="490.681641"/>
      <use xlink:href="#DejaVuSans-72" x="569.392578"/>
      <use xlink:href="#DejaVuSans-69" x="610.505859"/>
      <use xlink:href="#DejaVuSans-65" x="638.289062"/>
      <use xlink:href="#DejaVuSans-6e" x="699.8125"/>
      <use xlink:href="#DejaVuSans-74" x="763.191406"/>
      <use xlink:href="#DejaVuSans-61" x="802.400391"/>
      <use xlink:href="#DejaVuSans-74" x="863.679688"/>
      <use xlink:href="#DejaVuSans-69" x="902.888672"/>
      <use xlink:href="#DejaVuSans-6f" x="930.671875"/>
      <use xlink:href="#DejaVuSans-6e" x="991.853516"/>
      <use xlink:href="#DejaVuSans-20" x="1055.232422"/>
      <use xlink:href="#DejaVuSans-44" x="1087.019531"/>
      <use xlink:href="#DejaVuSans-69" x="1164.021484"/>
      <use xlink:href="#DejaVuSans-66" x="1191.804688"/>
      <use xlink:href="#DejaVuSans-66" x="1227.009766"/>
      <use xlink:href="#DejaVuSans-65" x="1262.214844"/>
      <use xlink:href="#DejaVuSans-72" x="1323.738281"/>
      <use xlink:href="#DejaVuSans-65" x="1362.601562"/>
      <use xlink:href="#DejaVuSans-6e" x="1424.125"/>
      <use xlink:href="#DejaVuSans-63" x="1487.503906"/>
      <use xlink:href="#DejaVuSans-65" x="1542.484375"/>
      <use xlink:href="#DejaVuSans-20" x="1604.007812"/>
      <use xlink:href="#DejaVuSans-28" x="1635.794922"/>
      <use xlink:href="#DejaVuSans-64" x="1674.808594"/>
      <use xlink:href="#DejaVuSans-65" x="1738.285156"/>
      <use xlink:href="#DejaVuSans-67" x="1799.808594"/>
      <use xlink:href="#DejaVuSans-29" x="1863.285156"/>
     </g>
    </g>
   </g>
   <g id="matplotlib.axis_4">
    <g id="ytick_4">
     <g id="line2d_24">
      <g>
       <use xlink:href="#ma342428813" x="54.2" y="235.728303" style="stroke: #000000; stroke-width: 0.8"/>
      </g>
     </g>
     <g id="text_24">
      <!-- 0.25 -->
      <g transform="translate(24.934375 239.527522) scale(0.1 -0.1)">
       <defs>
        <path id="DejaVuSans-32" d="M 1228 531 
L 3431 531 
L 3431 0 
L 469 0 
L 469 531 
Q 828 903 1448 1529 
Q 2069 2156 2228 2338 
Q 2531 2678 2651 2914 
Q 2772 3150 2772 3378 
Q 2772 3750 2511 3984 
Q 2250 4219 1831 4219 
Q 1534 4219 1204 4116 
Q 875 4013 500 3803 
L 500 4441 
Q 881 4594 1212 4672 
Q 1544 4750 1819 4750 
Q 2544 4750 2975 4387 
Q 3406 4025 3406 3419 
Q 3406 3131 3298 2873 
Q 3191 2616 2906 2266 
Q 2828 2175 2409 1742 
Q 1991 1309 1228 531 
z
" transform="scale(0.015625)"/>
       </defs>
       <use xlink:href="#DejaVuSans-30"/>
       <use xlink:href="#DejaVuSans-2e" x="63.623047"/>
       <use xlink:href="#DejaVuSans-32" x="95.410156"/>
       <use xlink:href="#DejaVuSans-35" x="159.033203"/>
      </g>
     </g>
    </g>
    <g id="ytick_5">
     <g id="line2d_25">
      <g>
       <use xlink:href="#ma342428813" x="54.2" y="213.701899" style="stroke: #000000; stroke-width: 0.8"/>
      </g>
     </g>
     <g id="text_25">
      <!-- 0.50 -->
      <g transform="translate(24.934375 217.501118) scale(0.1 -0.1)">
       <use xlink:href="#DejaVuSans-30"/>
       <use xlink:href="#DejaVuSans-2e" x="63.623047"/>
       <use xlink:href="#DejaVuSans-35" x="95.410156"/>
       <use xlink:href="#DejaVuSans-30" x="159.033203"/>
      </g>
     </g>
    </g>
    <g id="ytick_6">
     <g id="line2d_26">
      <g>
       <use xlink:href="#ma342428813" x="54.2" y="191.675495" style="stroke: #000000; stroke-width: 0.8"/>
      </g>
     </g>
     <g id="text_26">
      <!-- 0.75 -->
      <g transform="translate(24.934375 195.474714) scale(0.1 -0.1)">
       <defs>
        <path id="DejaVuSans-37" d="M 525 4666 
L 3525 4666 
L 3525 4397 
L 1831 0 
L 1172 0 
L 2766 4134 
L 525 4134 
L 525 4666 
z
" transform="scale(0.015625)"/>
       </defs>
       <use xlink:href="#DejaVuSans-30"/>
       <use xlink:href="#DejaVuSans-2e" x="63.623047"/>
       <use xlink:href="#DejaVuSans-37" x="95.410156"/>
       <use xlink:href="#DejaVuSans-35" x="159.033203"/>
      </g>
     </g>
    </g>
    <g id="ytick_7">
     <g id="line2d_27">
      <g>
       <use xlink:href="#ma342428813" x="54.2" y="169.649091" style="stroke: #000000; stroke-width: 0.8"/>
      </g>
     </g>
     <g id="text_27">
      <!-- 1.00 -->
      <g transform="translate(24.934375 173.44831) scale(0.1 -0.1)">
       <use xlink:href="#DejaVuSans-31"/>
       <use xlink:href="#DejaVuSans-2e" x="63.623047"/>
       <use xlink:href="#DejaVuSans-30" x="95.410156"/>
       <use xlink:href="#DejaVuSans-30" x="159.033203"/>
      </g>
     </g>
    </g>
    <g id="text_28">
     <!-- Prob. of Connection -->
     <g transform="translate(18.854688 256.722031) rotate(-90) scale(0.1 -0.1)">
      <use xlink:href="#DejaVuSans-50"/>
      <use xlink:href="#DejaVuSans-72" x="58.552734"/>
      <use xlink:href="#DejaVuSans-6f" x="97.416016"/>
      <use xlink:href="#DejaVuSans-62" x="158.597656"/>
      <use xlink:href="#DejaVuSans-2e" x="222.074219"/>
      <use xlink:href="#DejaVuSans-20" x="253.861328"/>
      <use xlink:href="#DejaVuSans-6f" x="285.648438"/>
      <use xlink:href="#DejaVuSans-66" x="346.830078"/>
      <use xlink:href="#DejaVuSans-20" x="382.035156"/>
      <use xlink:href="#DejaVuSans-43" x="413.822266"/>
      <use xlink:href="#DejaVuSans-6f" x="483.646484"/>
      <use xlink:href="#DejaVuSans-6e" x="544.828125"/>
      <use xlink:href="#DejaVuSans-6e" x="608.207031"/>
      <use xlink:href="#DejaVuSans-65" x="671.585938"/>
      <use xlink:href="#DejaVuSans-63" x="733.109375"/>
      <use xlink:href="#DejaVuSans-74" x="788.089844"/>
      <use xlink:href="#DejaVuSans-69" x="827.298828"/>
      <use xlink:href="#DejaVuSans-6f" x="855.082031"/>
      <use xlink:href="#DejaVuSans-6e" x="916.263672"/>
     </g>
    </g>
   </g>
   <g id="line2d_28">
    <path d="M 54.2 245.830909 
L 60.507556 243.567177 
L 66.815111 241.006531 
L 73.122667 238.139326 
L 79.430222 234.962071 
L 85.737778 231.478609 
L 92.045333 227.70116 
L 98.352889 223.651192 
L 104.660444 219.360024 
L 112.544889 213.720973 
L 123.583111 205.503283 
L 137.775111 194.919748 
L 145.659556 189.332546 
L 151.967111 185.155353 
L 156.697778 182.248468 
L 161.428444 179.573437 
L 166.159111 177.16262 
L 170.889778 175.045874 
L 175.620444 173.249945 
L 178.774222 172.242449 
L 181.928 171.393699 
L 185.081778 170.708638 
L 188.235556 170.191278 
L 191.389333 169.844664 
L 194.543111 169.670843 
L 197.696889 169.670843 
L 200.850667 169.844664 
L 204.004444 170.191278 
L 207.158222 170.708638 
L 210.312 171.393699 
L 213.465778 172.242449 
L 216.619556 173.249945 
L 221.350222 175.045874 
L 226.080889 177.16262 
L 230.811556 179.573437 
L 235.542222 182.248468 
L 240.272889 185.155353 
L 246.580444 189.332546 
L 252.888 193.776899 
L 262.349333 200.758728 
L 281.272 214.8691 
L 289.156444 220.453336 
L 295.464 224.687692 
L 301.771556 228.672074 
L 308.079111 232.377665 
L 314.386667 235.785378 
L 320.694222 238.885174 
L 327.001778 241.675152 
L 333.309333 244.160451 
L 336.463111 245.292087 
L 336.463111 245.292087 
" clip-path="url(#pdae501ae34)" style="fill: none; stroke-dasharray: 1.5,2.475; stroke-dashoffset: 0; stroke: #ff0000; stroke-opacity: 0.5; stroke-width: 1.5"/>
   </g>
   <g id="line2d_29">
    <path d="M 54.2 229.150851 
L 62.084444 225.454658 
L 69.968889 221.533255 
L 79.430222 216.573407 
L 90.468444 210.522927 
L 125.16 191.249012 
L 133.044444 187.205172 
L 140.928889 183.433363 
L 147.236444 180.657683 
L 153.544 178.133001 
L 159.851556 175.890292 
L 164.582222 174.410344 
L 169.312889 173.115502 
L 174.043556 172.01516 
L 178.774222 171.117376 
L 183.504889 170.428778 
L 188.235556 169.954481 
L 192.966222 169.698025 
L 197.696889 169.661327 
L 202.427556 169.844663 
L 207.158222 170.24666 
L 211.888889 170.864316 
L 216.619556 171.693034 
L 221.350222 172.726684 
L 226.080889 173.957672 
L 230.811556 175.37704 
L 237.119111 177.544737 
L 243.426667 180.001728 
L 249.734222 182.717696 
L 256.041778 185.659926 
L 263.926222 189.603292 
L 273.387556 194.632944 
L 286.002667 201.646147 
L 309.656 214.868956 
L 319.117333 219.908142 
L 328.578667 224.68754 
L 336.463111 228.430818 
L 336.463111 228.430818 
" clip-path="url(#pdae501ae34)" style="fill: none; stroke-dasharray: 5.55,2.4; stroke-dashoffset: 0; stroke: #0000ff; stroke-opacity: 0.5; stroke-width: 1.5"/>
   </g>
   <g id="line2d_30">
    <path d="M 54.2 245.830909 
L 60.507556 243.567177 
L 66.815111 241.006531 
L 73.122667 238.139326 
L 79.430222 234.962071 
L 85.737778 231.478609 
L 92.045333 227.70116 
L 98.352889 223.651192 
L 104.660444 219.360024 
L 112.544889 213.720973 
L 123.583111 205.503283 
L 137.775111 194.919748 
L 145.659556 189.332546 
L 151.967111 185.155353 
L 156.697778 182.248468 
L 161.428444 179.573437 
L 166.159111 177.16262 
L 170.889778 175.045874 
L 175.620444 173.249945 
L 178.774222 172.242449 
L 181.928 171.393699 
L 185.081778 170.708638 
L 188.235556 170.191278 
L 191.389333 169.844664 
L 194.543111 169.670843 
L 197.696889 169.670843 
L 200.850667 169.844664 
L 204.004444 170.191278 
L 207.158222 170.708638 
L 210.312 171.393699 
L 213.465778 172.242449 
L 216.619556 173.249945 
L 221.350222 175.045874 
L 226.080889 177.16262 
L 230.811556 179.573437 
L 235.542222 182.248468 
L 240.272889 185.155353 
L 246.580444 189.332546 
L 252.888 193.776899 
L 262.349333 200.758728 
L 281.272 214.8691 
L 289.156444 220.453336 
L 295.464 224.687692 
L 301.771556 228.672074 
L 308.079111 232.377665 
L 314.386667 235.785378 
L 320.694222 238.885174 
L 327.001778 241.675152 
L 333.309333 244.160451 
L 336.463111 245.292087 
L 336.463111 245.292087 
" clip-path="url(#pdae501ae34)" style="fill: none; stroke-dasharray: 5.55,2.4; stroke-dashoffset: 0; stroke: #ff0000; stroke-opacity: 0.5; stroke-width: 1.5"/>
   </g>
   <g id="line2d_31">
    <path d="M 54.2 229.150851 
L 62.084444 225.454658 
L 69.968889 221.533255 
L 79.430222 216.573407 
L 90.468444 210.522927 
L 125.16 191.249012 
L 133.044444 187.205172 
L 140.928889 183.433363 
L 147.236444 180.657683 
L 153.544 178.133001 
L 159.851556 175.890292 
L 164.582222 174.410344 
L 169.312889 173.115502 
L 174.043556 172.01516 
L 178.774222 171.117376 
L 183.504889 170.428778 
L 188.235556 169.954481 
L 192.966222 169.698025 
L 197.696889 169.661327 
L 202.427556 169.844663 
L 207.158222 170.24666 
L 211.888889 170.864316 
L 216.619556 171.693034 
L 221.350222 172.726684 
L 226.080889 173.957672 
L 230.811556 175.37704 
L 237.119111 177.544737 
L 243.426667 180.001728 
L 249.734222 182.717696 
L 256.041778 185.659926 
L 263.926222 189.603292 
L 273.387556 194.632944 
L 286.002667 201.646147 
L 309.656 214.868956 
L 319.117333 219.908142 
L 328.578667 224.68754 
L 336.463111 228.430818 
L 336.463111 228.430818 
" clip-path="url(#pdae501ae34)" style="fill: none; stroke-dasharray: 1.5,2.475; stroke-dashoffset: 0; stroke: #0000ff; stroke-opacity: 0.5; stroke-width: 1.5"/>
   </g>
   <g id="patch_9">
    <path d="M 54.2 249.64 
L 54.2 165.84 
" style="fill: none; stroke: #000000; stroke-width: 0.8; stroke-linejoin: miter; stroke-linecap: square"/>
   </g>
   <g id="patch_10">
    <path d="M 338.04 249.64 
L 338.04 165.84 
" style="fill: none; stroke: #000000; stroke-width: 0.8; stroke-linejoin: miter; stroke-linecap: square"/>
   </g>
   <g id="patch_11">
    <path d="M 54.2 249.64 
L 338.04 249.64 
" style="fill: none; stroke: #000000; stroke-width: 0.8; stroke-linejoin: miter; stroke-linecap: square"/>
   </g>
   <g id="patch_12">
    <path d="M 54.2 165.84 
L 338.04 165.84 
" style="fill: none; stroke: #000000; stroke-width: 0.8; stroke-linejoin: miter; stroke-linecap: square"/>
   </g>
   <g id="text_29">
    <!-- Orientation Kernels -->
    <g transform="translate(138.365313 159.84) scale(0.12 -0.12)">
     <use xlink:href="#DejaVuSans-4f"/>
     <use xlink:href="#DejaVuSans-72" x="78.710938"/>
     <use xlink:href="#DejaVuSans-69" x="119.824219"/>
     <use xlink:href="#DejaVuSans-65" x="147.607422"/>
     <use xlink:href="#DejaVuSans-6e" x="209.130859"/>
     <use xlink:href="#DejaVuSans-74" x="272.509766"/>
     <use xlink:href="#DejaVuSans-61" x="311.71875"/>
     <use xlink:href="#DejaVuSans-74" x="372.998047"/>
     <use xlink:href="#DejaVuSans-69" x="412.207031"/>
     <use xlink:href="#DejaVuSans-6f" x="439.990234"/>
     <use xlink:href="#DejaVuSans-6e" x="501.171875"/>
     <use xlink:href="#DejaVuSans-20" x="564.550781"/>
     <use xlink:href="#DejaVuSans-4b" x="596.337891"/>
     <use xlink:href="#DejaVuSans-65" x="656.914062"/>
     <use xlink:href="#DejaVuSans-72" x="718.4375"/>
     <use xlink:href="#DejaVuSans-6e" x="757.800781"/>
     <use xlink:href="#DejaVuSans-65" x="821.179688"/>
     <use xlink:href="#DejaVuSans-6c" x="882.703125"/>
     <use xlink:href="#DejaVuSans-73" x="910.486328"/>
    </g>
   </g>
  </g>
  <g id="axes_3">
   <g id="patch_13">
    <path d="M 54.2 390.04 
L 338.04 390.04 
L 338.04 306.24 
L 54.2 306.24 
z
" style="fill: #ffffff"/>
   </g>
   <g id="matplotlib.axis_5">
    <g id="xtick_13">
     <g id="line2d_32">
      <g>
       <use xlink:href="#mdd577e7ecc" x="74.474286" y="390.04" style="stroke: #000000; stroke-width: 0.8"/>
      </g>
     </g>
     <g id="text_30">
      <!-- −6 -->
      <g transform="translate(67.103192 404.638438) scale(0.1 -0.1)">
       <defs>
        <path id="DejaVuSans-36" d="M 2113 2584 
Q 1688 2584 1439 2293 
Q 1191 2003 1191 1497 
Q 1191 994 1439 701 
Q 1688 409 2113 409 
Q 2538 409 2786 701 
Q 3034 994 3034 1497 
Q 3034 2003 2786 2293 
Q 2538 2584 2113 2584 
z
M 3366 4563 
L 3366 3988 
Q 3128 4100 2886 4159 
Q 2644 4219 2406 4219 
Q 1781 4219 1451 3797 
Q 1122 3375 1075 2522 
Q 1259 2794 1537 2939 
Q 1816 3084 2150 3084 
Q 2853 3084 3261 2657 
Q 3669 2231 3669 1497 
Q 3669 778 3244 343 
Q 2819 -91 2113 -91 
Q 1303 -91 875 529 
Q 447 1150 447 2328 
Q 447 3434 972 4092 
Q 1497 4750 2381 4750 
Q 2619 4750 2861 4703 
Q 3103 4656 3366 4563 
z
" transform="scale(0.015625)"/>
       </defs>
       <use xlink:href="#DejaVuSans-2212"/>
       <use xlink:href="#DejaVuSans-36" x="83.789062"/>
      </g>
     </g>
    </g>
    <g id="xtick_14">
     <g id="line2d_33">
      <g>
       <use xlink:href="#mdd577e7ecc" x="115.022857" y="390.04" style="stroke: #000000; stroke-width: 0.8"/>
      </g>
     </g>
     <g id="text_31">
      <!-- −4 -->
      <g transform="translate(107.651763 404.638438) scale(0.1 -0.1)">
       <use xlink:href="#DejaVuSans-2212"/>
       <use xlink:href="#DejaVuSans-34" x="83.789062"/>
      </g>
     </g>
    </g>
    <g id="xtick_15">
     <g id="line2d_34">
      <g>
       <use xlink:href="#mdd577e7ecc" x="155.571429" y="390.04" style="stroke: #000000; stroke-width: 0.8"/>
      </g>
     </g>
     <g id="text_32">
      <!-- −2 -->
      <g transform="translate(148.200335 404.638438) scale(0.1 -0.1)">
       <use xlink:href="#DejaVuSans-2212"/>
       <use xlink:href="#DejaVuSans-32" x="83.789062"/>
      </g>
     </g>
    </g>
    <g id="xtick_16">
     <g id="line2d_35">
      <g>
       <use xlink:href="#mdd577e7ecc" x="196.12" y="390.04" style="stroke: #000000; stroke-width: 0.8"/>
      </g>
     </g>
     <g id="text_33">
      <!-- 0 -->
      <g transform="translate(192.93875 404.638438) scale(0.1 -0.1)">
       <use xlink:href="#DejaVuSans-30"/>
      </g>
     </g>
    </g>
    <g id="xtick_17">
     <g id="line2d_36">
      <g>
       <use xlink:href="#mdd577e7ecc" x="236.668571" y="390.04" style="stroke: #000000; stroke-width: 0.8"/>
      </g>
     </g>
     <g id="text_34">
      <!-- 2 -->
      <g transform="translate(233.487321 404.638438) scale(0.1 -0.1)">
       <use xlink:href="#DejaVuSans-32"/>
      </g>
     </g>
    </g>
    <g id="xtick_18">
     <g id="line2d_37">
      <g>
       <use xlink:href="#mdd577e7ecc" x="277.217143" y="390.04" style="stroke: #000000; stroke-width: 0.8"/>
      </g>
     </g>
     <g id="text_35">
      <!-- 4 -->
      <g transform="translate(274.035893 404.638438) scale(0.1 -0.1)">
       <use xlink:href="#DejaVuSans-34"/>
      </g>
     </g>
    </g>
    <g id="xtick_19">
     <g id="line2d_38">
      <g>
       <use xlink:href="#mdd577e7ecc" x="317.765714" y="390.04" style="stroke: #000000; stroke-width: 0.8"/>
      </g>
     </g>
     <g id="text_36">
      <!-- 6 -->
      <g transform="translate(314.584464 404.638438) scale(0.1 -0.1)">
       <use xlink:href="#DejaVuSans-36"/>
      </g>
     </g>
    </g>
    <g id="text_37">
     <!-- Connection Weight -->
     <g transform="translate(148.820781 418.316562) scale(0.1 -0.1)">
      <defs>
       <path id="DejaVuSans-57" d="M 213 4666 
L 850 4666 
L 1831 722 
L 2809 4666 
L 3519 4666 
L 4500 722 
L 5478 4666 
L 6119 4666 
L 4947 0 
L 4153 0 
L 3169 4050 
L 2175 0 
L 1381 0 
L 213 4666 
z
" transform="scale(0.015625)"/>
       <path id="DejaVuSans-68" d="M 3513 2113 
L 3513 0 
L 2938 0 
L 2938 2094 
Q 2938 2591 2744 2837 
Q 2550 3084 2163 3084 
Q 1697 3084 1428 2787 
Q 1159 2491 1159 1978 
L 1159 0 
L 581 0 
L 581 4863 
L 1159 4863 
L 1159 2956 
Q 1366 3272 1645 3428 
Q 1925 3584 2291 3584 
Q 2894 3584 3203 3211 
Q 3513 2838 3513 2113 
z
" transform="scale(0.015625)"/>
      </defs>
      <use xlink:href="#DejaVuSans-43"/>
      <use xlink:href="#DejaVuSans-6f" x="69.824219"/>
      <use xlink:href="#DejaVuSans-6e" x="131.005859"/>
      <use xlink:href="#DejaVuSans-6e" x="194.384766"/>
      <use xlink:href="#DejaVuSans-65" x="257.763672"/>
      <use xlink:href="#DejaVuSans-63" x="319.287109"/>
      <use xlink:href="#DejaVuSans-74" x="374.267578"/>
      <use xlink:href="#DejaVuSans-69" x="413.476562"/>
      <use xlink:href="#DejaVuSans-6f" x="441.259766"/>
      <use xlink:href="#DejaVuSans-6e" x="502.441406"/>
      <use xlink:href="#DejaVuSans-20" x="565.820312"/>
      <use xlink:href="#DejaVuSans-57" x="597.607422"/>
      <use xlink:href="#DejaVuSans-65" x="690.609375"/>
      <use xlink:href="#DejaVuSans-69" x="752.132812"/>
      <use xlink:href="#DejaVuSans-67" x="779.916016"/>
      <use xlink:href="#DejaVuSans-68" x="843.392578"/>
      <use xlink:href="#DejaVuSans-74" x="906.771484"/>
     </g>
    </g>
   </g>
   <g id="matplotlib.axis_6">
    <g id="ytick_8">
     <g id="line2d_39">
      <g>
       <use xlink:href="#ma342428813" x="54.2" y="383.056667" style="stroke: #000000; stroke-width: 0.8"/>
      </g>
     </g>
     <g id="text_38">
      <!-- 0.0 -->
      <g transform="translate(31.296875 386.855885) scale(0.1 -0.1)">
       <use xlink:href="#DejaVuSans-30"/>
       <use xlink:href="#DejaVuSans-2e" x="63.623047"/>
       <use xlink:href="#DejaVuSans-30" x="95.410156"/>
      </g>
     </g>
    </g>
    <g id="ytick_9">
     <g id="line2d_40">
      <g>
       <use xlink:href="#ma342428813" x="54.2" y="348.14" style="stroke: #000000; stroke-width: 0.8"/>
      </g>
     </g>
     <g id="text_39">
      <!-- 0.5 -->
      <g transform="translate(31.296875 351.939219) scale(0.1 -0.1)">
       <use xlink:href="#DejaVuSans-30"/>
       <use xlink:href="#DejaVuSans-2e" x="63.623047"/>
       <use xlink:href="#DejaVuSans-35" x="95.410156"/>
      </g>
     </g>
    </g>
    <g id="ytick_10">
     <g id="line2d_41">
      <g>
       <use xlink:href="#ma342428813" x="54.2" y="313.223333" style="stroke: #000000; stroke-width: 0.8"/>
      </g>
     </g>
     <g id="text_40">
      <!-- 1.0 -->
      <g transform="translate(31.296875 317.022552) scale(0.1 -0.1)">
       <use xlink:href="#DejaVuSans-31"/>
       <use xlink:href="#DejaVuSans-2e" x="63.623047"/>
       <use xlink:href="#DejaVuSans-30" x="95.410156"/>
      </g>
     </g>
    </g>
    <g id="text_41">
     <!-- Prob. of Connection Weight -->
     <g transform="translate(25.217188 416.129844) rotate(-90) scale(0.1 -0.1)">
      <use xlink:href="#DejaVuSans-50"/>
      <use xlink:href="#DejaVuSans-72" x="58.552734"/>
      <use xlink:href="#DejaVuSans-6f" x="97.416016"/>
      <use xlink:href="#DejaVuSans-62" x="158.597656"/>
      <use xlink:href="#DejaVuSans-2e" x="222.074219"/>
      <use xlink:href="#DejaVuSans-20" x="253.861328"/>
      <use xlink:href="#DejaVuSans-6f" x="285.648438"/>
      <use xlink:href="#DejaVuSans-66" x="346.830078"/>
      <use xlink:href="#DejaVuSans-20" x="382.035156"/>
      <use xlink:href="#DejaVuSans-43" x="413.822266"/>
      <use xlink:href="#DejaVuSans-6f" x="483.646484"/>
      <use xlink:href="#DejaVuSans-6e" x="544.828125"/>
      <use xlink:href="#DejaVuSans-6e" x="608.207031"/>
      <use xlink:href="#DejaVuSans-65" x="671.585938"/>
      <use xlink:href="#DejaVuSans-63" x="733.109375"/>
      <use xlink:href="#DejaVuSans-74" x="788.089844"/>
      <use xlink:href="#DejaVuSans-69" x="827.298828"/>
      <use xlink:href="#DejaVuSans-6f" x="855.082031"/>
      <use xlink:href="#DejaVuSans-6e" x="916.263672"/>
      <use xlink:href="#DejaVuSans-20" x="979.642578"/>
      <use xlink:href="#DejaVuSans-57" x="1011.429688"/>
      <use xlink:href="#DejaVuSans-65" x="1104.431641"/>
      <use xlink:href="#DejaVuSans-69" x="1165.955078"/>
      <use xlink:href="#DejaVuSans-67" x="1193.738281"/>
      <use xlink:href="#DejaVuSans-68" x="1257.214844"/>
      <use xlink:href="#DejaVuSans-74" x="1320.59375"/>
     </g>
    </g>
   </g>
   <g id="line2d_42">
    <path d="M 54.2 383.056667 
L 202.526674 382.946008 
L 207.89936 382.699054 
L 211.508183 382.320625 
L 214.346583 381.805638 
L 216.738949 381.149653 
L 218.847474 380.344496 
L 220.773531 379.373988 
L 222.598217 378.204227 
L 224.341806 376.820402 
L 226.044846 375.183333 
L 227.747886 373.233359 
L 229.4712 370.915128 
L 231.235063 368.162724 
L 233.080023 364.862534 
L 235.046629 360.877337 
L 237.215977 355.961586 
L 239.770537 349.591882 
L 243.6632 339.193431 
L 247.515314 329.108231 
L 249.704937 323.988102 
L 251.448526 320.446961 
L 252.948823 317.880262 
L 254.266651 316.048252 
L 255.44256 314.77944 
L 256.496823 313.953449 
L 257.469989 313.462583 
L 258.382331 313.244453 
L 259.2744 313.259893 
L 260.166469 313.501348 
L 261.099086 313.992867 
L 262.092526 314.77944 
L 263.167063 315.924902 
L 264.363246 317.54119 
L 265.701349 319.74234 
L 267.22192 322.691255 
L 269.006057 326.658569 
L 271.256503 332.242291 
L 274.946423 342.098267 
L 279.041829 352.844388 
L 281.576114 358.872672 
L 283.745463 363.47913 
L 285.732343 367.193251 
L 287.617851 370.255987 
L 289.422263 372.772187 
L 291.186126 374.858895 
L 292.949989 376.604569 
L 294.713851 378.042513 
L 296.538537 379.244939 
L 298.44432 380.235297 
L 300.492023 381.048029 
L 302.762743 381.705865 
L 305.357851 382.220125 
L 308.480091 382.603446 
L 312.534949 382.863975 
L 318.617234 383.009557 
L 332.302377 383.055526 
L 338.019726 383.056474 
L 338.019726 383.056474 
" clip-path="url(#p2064bc3d81)" style="fill: none; stroke-dasharray: 1.5,2.475; stroke-dashoffset: 0; stroke: #ff0000; stroke-opacity: 0.5; stroke-width: 1.5"/>
   </g>
   <g id="line2d_43">
    <path d="M 54.2 383.056667 
L 145.45456 382.945626 
L 147.745554 382.697747 
L 149.2864 382.317219 
L 150.523131 381.785737 
L 151.577394 381.093931 
L 152.55056 380.189397 
L 153.483177 379.015049 
L 154.415794 377.469844 
L 155.348411 375.483153 
L 156.321577 372.867542 
L 157.355566 369.413503 
L 158.470651 364.86139 
L 159.707383 358.820196 
L 161.187406 350.406929 
L 166.154606 321.09253 
L 167.107497 317.286267 
L 167.87792 315.059179 
L 168.506423 313.872535 
L 169.01328 313.352052 
L 169.418766 313.223333 
L 169.803977 313.339512 
L 170.209463 313.711522 
L 170.696046 314.49009 
L 171.284 315.897 
L 171.9936 318.22984 
L 172.865394 321.938099 
L 173.960206 327.650871 
L 175.561874 337.330993 
L 178.785486 356.96433 
L 180.204686 364.127249 
L 181.421143 369.187571 
L 182.536229 372.928126 
L 183.590491 375.722583 
L 184.604206 377.804707 
L 185.597646 379.354292 
L 186.591086 380.503845 
L 187.625074 381.363286 
L 188.74016 381.99783 
L 189.997166 382.453526 
L 191.558286 382.771277 
L 193.70736 382.963512 
L 197.741943 383.056667 
L 338.019726 383.056667 
L 338.019726 383.056667 
" clip-path="url(#p2064bc3d81)" style="fill: none; stroke-dasharray: 5.55,2.4; stroke-dashoffset: 0; stroke: #0000ff; stroke-opacity: 0.5; stroke-width: 1.5"/>
   </g>
   <g id="line2d_44">
    <path d="M 54.2 383.056667 
L 204.412183 382.945625 
L 211.345989 382.698148 
L 216.009074 382.318547 
L 219.658446 381.805086 
L 222.740137 381.150749 
L 225.436617 380.354909 
L 227.889806 379.402331 
L 230.1808 378.275565 
L 232.370423 376.949018 
L 234.478949 375.410044 
L 236.546926 373.624688 
L 238.614903 371.543496 
L 240.723429 369.09911 
L 242.872503 366.261903 
L 245.122949 362.916063 
L 247.535589 358.91961 
L 250.211794 354.03961 
L 253.415131 347.707901 
L 264.322697 325.705678 
L 266.532594 322.000377 
L 268.418103 319.255446 
L 270.080594 317.20953 
L 271.580891 315.698833 
L 272.959543 314.612996 
L 274.236823 313.878877 
L 275.45328 313.431084 
L 276.608914 313.237369 
L 277.744274 313.268798 
L 278.899909 313.526185 
L 280.075817 314.018898 
L 281.312549 314.782827 
L 282.630377 315.864652 
L 284.049577 317.323423 
L 285.610697 319.255446 
L 287.354286 321.77941 
L 289.341166 325.061956 
L 291.713257 329.433567 
L 294.835497 335.693158 
L 304.181943 354.729946 
L 306.979794 359.758197 
L 309.473531 363.795734 
L 311.805074 367.155474 
L 314.014971 369.958909 
L 316.164046 372.333849 
L 318.292846 374.358944 
L 320.421646 376.079324 
L 322.57072 377.53358 
L 324.800891 378.774556 
L 327.132434 379.817277 
L 329.626171 380.6883 
L 332.3632 381.406363 
L 335.465166 381.984792 
L 338.019726 382.318547 
L 338.019726 382.318547 
" clip-path="url(#p2064bc3d81)" style="fill: none; stroke-dasharray: 5.55,2.4; stroke-dashoffset: 0; stroke: #ff0000; stroke-opacity: 0.5; stroke-width: 1.5"/>
   </g>
   <g id="line2d_45">
    <path d="M 54.2 383.056667 
L 157.335291 382.94614 
L 159.099154 382.696882 
L 160.295337 382.308159 
L 161.248229 381.766621 
L 162.079474 381.040637 
L 162.870171 380.048777 
L 163.640594 378.715903 
L 164.431291 376.879433 
L 165.242263 374.40409 
L 166.093783 371.060625 
L 167.0264 366.437769 
L 168.060389 360.114313 
L 169.317394 350.925904 
L 173.351977 320.129111 
L 174.142674 316.328043 
L 174.750903 314.377144 
L 175.217211 313.513591 
L 175.582149 313.237078 
L 175.865989 313.267856 
L 176.170103 313.539321 
L 176.555314 314.232612 
L 177.021623 315.577804 
L 177.609577 318.013384 
L 178.359726 322.175539 
L 179.332891 328.947186 
L 180.995383 342.380532 
L 182.961989 357.742496 
L 184.178446 365.528161 
L 185.212434 370.790425 
L 186.165326 374.543566 
L 187.057394 377.196668 
L 187.908914 379.06891 
L 188.74016 380.3904 
L 189.59168 381.339176 
L 190.483749 382.005067 
L 191.477189 382.469157 
L 192.693646 382.783104 
L 194.376411 382.970117 
L 197.579749 383.056667 
L 338.019726 383.056667 
L 338.019726 383.056667 
" clip-path="url(#p2064bc3d81)" style="fill: none; stroke-dasharray: 1.5,2.475; stroke-dashoffset: 0; stroke: #0000ff; stroke-opacity: 0.5; stroke-width: 1.5"/>
   </g>
   <g id="line2d_46">
    <path d="M 196.12 390.04 
L 196.12 306.24 
" clip-path="url(#p2064bc3d81)" style="fill: none; stroke-dasharray: 5.55,2.4; stroke-dashoffset: 0; stroke: #000000; stroke-width: 1.5"/>
   </g>
   <g id="patch_14">
    <path d="M 54.2 390.04 
L 54.2 306.24 
" style="fill: none; stroke: #000000; stroke-width: 0.8; stroke-linejoin: miter; stroke-linecap: square"/>
   </g>
   <g id="patch_15">
    <path d="M 338.04 390.04 
L 338.04 306.24 
" style="fill: none; stroke: #000000; stroke-width: 0.8; stroke-linejoin: miter; stroke-linecap: square"/>
   </g>
   <g id="patch_16">
    <path d="M 54.2 390.04 
L 338.04 390.04 
" style="fill: none; stroke: #000000; stroke-width: 0.8; stroke-linejoin: miter; stroke-linecap: square"/>
   </g>
   <g id="patch_17">
    <path d="M 54.2 306.24 
L 338.04 306.24 
" style="fill: none; stroke: #000000; stroke-width: 0.8; stroke-linejoin: miter; stroke-linecap: square"/>
   </g>
   <g id="text_42">
    <!-- Weight Kernels -->
    <g transform="translate(151.335625 300.24) scale(0.12 -0.12)">
     <use xlink:href="#DejaVuSans-57"/>
     <use xlink:href="#DejaVuSans-65" x="93.001953"/>
     <use xlink:href="#DejaVuSans-69" x="154.525391"/>
     <use xlink:href="#DejaVuSans-67" x="182.308594"/>
     <use xlink:href="#DejaVuSans-68" x="245.785156"/>
     <use xlink:href="#DejaVuSans-74" x="309.164062"/>
     <use xlink:href="#DejaVuSans-20" x="348.373047"/>
     <use xlink:href="#DejaVuSans-4b" x="380.160156"/>
     <use xlink:href="#DejaVuSans-65" x="440.736328"/>
     <use xlink:href="#DejaVuSans-72" x="502.259766"/>
     <use xlink:href="#DejaVuSans-6e" x="541.623047"/>
     <use xlink:href="#DejaVuSans-65" x="605.001953"/>
     <use xlink:href="#DejaVuSans-6c" x="666.525391"/>
     <use xlink:href="#DejaVuSans-73" x="694.308594"/>
    </g>
   </g>
  </g>
 </g>
 <defs>
  <clipPath id="p19355d9445">
   <rect x="54.2" y="25.44" width="283.84" height="83.8"/>
  </clipPath>
  <clipPath id="pdae501ae34">
   <rect x="54.2" y="165.84" width="283.84" height="83.8"/>
  </clipPath>
  <clipPath id="p2064bc3d81">
   <rect x="54.2" y="306.24" width="283.84" height="83.8"/>
  </clipPath>
 </defs>
</svg>
